<svg xmlns="http://www.w3.org/2000/svg" width="17" height="13" viewBox="0 0 17 13"><g><g><path fill="#fff" d="M16.562 1.562c-.27.148-1.078.445-1.832.52.484-.262 1.2-1.115 1.376-1.794-.464.297-1.532.73-2.06.73l.002.002a3.3 3.3 0 0 0-5.603 3.016C5.971 3.971 3.08 2.732 1.451.611c-1 1.732-.135 3.658 1.001 4.36-.388.03-1.104-.044-1.441-.372-.024 1.15.53 2.673 2.546 3.225-.39.21-1.075.15-1.374.104.105.972 1.464 2.241 2.95 2.241-.53.611-2.336 1.724-4.572 1.37A9.908 9.908 0 0 0 5.726 13c5.325 0 9.46-4.316 9.238-9.64l-.002-.018.002-.042-.002-.05a5.68 5.68 0 0 0 1.6-1.688z"/></g></g></svg>